<svg xmlns="http://www.w3.org/2000/svg" fill="none" viewBox="0 0 72 56"><path fill="#9DE83F" d="M32.03 19.594h2.67l.763 18.675c.012.546.22 1.07.583 1.477.363.407.86.67 1.399.743h.306a2.285 2.285 0 0 0 2.135-1.76l7.475-24.263c.15-.477.059-.997-.246-1.394a1.522 1.522 0 0 0-1.28-.596h-1.601l2.135-9.72a2.302 2.302 0 0 0-.483-1.93A2.287 2.287 0 0 0 44.082 0l-9.154.383a2.285 2.285 0 0 0-1.472.586 2.299 2.299 0 0 0-.74 1.404l-2.288 15.46c-.058.445.082.893.381 1.225.303.357.753.554 1.22.536ZM35.69 3.52l7.552-.306-2.365 10.639c-.092.456.026.93.323 1.287.297.357.74.56 1.203.55h1.373l-5.492 17.91-.61-15.767a1.528 1.528 0 0 0-1.526-1.454h-2.44L35.69 3.52ZM71.468 36.232a2.296 2.296 0 0 0-.603-1.902l-5.354-5.48a2.243 2.243 0 0 0-2.866-.304L51.637 36.08a1.531 1.531 0 0 0-.226 2.359l1.433 1.522-10.632 10.73a2.293 2.293 0 0 0-.646 1.603c0 .599.235 1.174.652 1.6.417.426.984.67 1.578.678.34-.001.674-.079.98-.228l19.002-9.132a1.531 1.531 0 0 0 .377-2.435l-.755-.761 6.938-4.11a2.284 2.284 0 0 0 1.13-1.673Zm-11.31 4.11c-.393.24-.655.647-.714 1.106-.058.459.093.92.412 1.253l.678.685-13.12 6.316 8.672-8.752a1.533 1.533 0 0 0 0-2.13l-1.282-1.294 8.897-6.088 4.223 4.338-7.767 4.565ZM31.469 51.928 20.182 28.104a1.517 1.517 0 0 0-1.095-.861 1.503 1.503 0 0 0-1.328.401l-1.213 1.226-5.15-8.963a2.272 2.272 0 0 0-1.67-1.11 2.255 2.255 0 0 0-1.89.65L1.17 26.188A2.317 2.317 0 0 0 .867 29.1l8.938 13.33a1.503 1.503 0 0 0 2.348.23l1.97-1.992 13.634 13.865a2.257 2.257 0 0 0 3.556-.576 2.322 2.322 0 0 0 .08-2.028h.076ZM15.183 37.449a1.503 1.503 0 0 0-2.121 0l-1.742 1.762-7.575-11.26 5.605-5.593 5.606 9.806a1.502 1.502 0 0 0 2.348.306l1.06-1.073 8.408 17.85-11.59-11.798Z"/></svg>