<?xml version="1.0" standalone="no"?>
<!DOCTYPE svg PUBLIC "-//W3C//DTD SVG 20010904//EN"
 "http://www.w3.org/TR/2001/REC-SVG-20010904/DTD/svg10.dtd">
<svg version="1.0" xmlns="http://www.w3.org/2000/svg"
 width="1152.000000pt" height="1152.000000pt" viewBox="0 0 1152.000000 1152.000000"
 preserveAspectRatio="xMidYMid meet">
<metadata>
Created by potrace 1.14, written by Peter Selinger 2001-2017
</metadata>
<g transform="translate(0.000000,1152.000000) scale(0.100000,-0.100000)"
fill="#000000" stroke="none">
<path d="M6877 10234 c-1 -2 -72 -5 -157 -8 -140 -5 -296 -11 -497 -20 -39 -2
-76 -7 -82 -10 -6 -4 -11 -3 -11 3 0 5 -10 8 -22 5 -13 -2 -70 -6 -128 -9 -58
-2 -172 -7 -255 -10 -195 -8 -214 -11 -290 -46 -44 -20 -110 -77 -142 -124
-28 -41 -60 -137 -68 -205 -3 -30 -8 -68 -11 -85 -2 -16 -6 -44 -8 -60 -2 -17
-6 -44 -9 -60 -6 -30 -10 -56 -23 -150 -3 -27 -8 -57 -9 -67 -4 -20 -15 -93
-20 -133 -2 -16 -4 -30 -5 -30 -1 0 -3 -16 -6 -35 -2 -19 -6 -48 -9 -65 -3
-16 -8 -50 -11 -75 -2 -25 -7 -57 -9 -72 -9 -54 -14 -83 -20 -128 -3 -25 -10
-69 -16 -97 -6 -29 -8 -57 -4 -63 3 -5 2 -10 -3 -10 -5 0 -8 -11 -7 -25 2 -14
0 -25 -3 -25 -4 0 -7 -12 -7 -27 -1 -29 -5 -65 -24 -188 -6 -38 -13 -86 -15
-105 -3 -19 -5 -35 -6 -35 -3 0 -7 -30 -14 -88 -3 -32 -10 -86 -16 -120 -5
-34 -12 -80 -15 -102 -4 -22 -8 -51 -11 -65 -5 -27 -14 -97 -19 -145 -2 -16
-4 -31 -5 -32 -4 -5 -6 -16 -14 -83 -4 -36 -10 -74 -11 -85 -2 -11 -7 -40 -11
-65 -4 -25 -9 -52 -11 -60 -2 -8 -4 -40 -5 -70 -1 -71 26 -134 82 -187 63 -61
97 -67 368 -68 225 0 232 -1 233 -20 1 -19 3 -47 13 -300 3 -66 8 -178 11
-250 10 -218 16 -364 20 -500 2 -71 5 -130 5 -130 1 0 3 -43 5 -95 6 -153 15
-376 20 -500 3 -63 7 -167 10 -230 8 -232 16 -417 20 -490 2 -41 7 -156 11
-255 8 -231 14 -310 24 -310 1 0 3 -7 5 -15 13 -63 65 -134 129 -177 23 -15
43 -31 46 -34 13 -17 112 -36 176 -34 115 4 223 66 286 164 15 25 45 101 67
170 59 190 85 275 87 286 1 6 9 30 17 55 8 25 32 99 52 165 20 66 39 129 43
140 3 11 7 22 7 25 1 3 4 12 8 20 3 8 15 49 27 90 12 41 24 82 27 90 3 8 7 20
8 25 2 6 28 91 59 190 31 99 59 189 61 199 6 24 25 86 32 106 4 8 7 17 8 20 0
3 4 14 7 25 4 11 18 61 33 110 15 50 29 97 32 105 8 19 7 17 17 60 5 19 12 41
17 50 4 8 29 85 54 170 69 231 115 381 130 420 7 19 13 37 12 40 0 5 21 75 30
100 3 8 7 20 8 25 9 37 55 187 60 195 3 5 8 19 10 30 2 11 16 60 32 108 15 48
28 90 29 95 1 4 2 8 4 10 1 1 3 9 5 17 2 8 15 53 30 99 15 46 28 91 30 100 2
9 17 59 35 111 17 52 33 103 36 113 2 9 6 25 8 35 3 9 13 42 24 72 11 30 20
60 20 65 1 6 16 55 34 110 62 196 66 222 42 305 -17 59 -67 113 -134 143 -39
18 -66 21 -199 22 -142 0 -154 2 -157 19 -1 10 1 28 6 41 5 12 11 35 13 51 3
16 15 73 27 128 12 54 23 106 25 115 2 9 13 59 25 111 12 52 23 104 26 115 2
11 6 31 10 45 3 14 8 39 11 55 6 35 8 41 16 75 10 35 118 529 123 560 3 14 17
79 32 144 35 149 35 223 -3 313 -15 34 -31 63 -36 63 -5 0 -9 6 -9 13 0 19
-80 85 -140 114 -51 25 -65 27 -192 28 -76 1 -139 1 -141 -1z m34 -517 c2 -12
-15 -103 -21 -109 -1 -2 -3 -16 -6 -33 -4 -32 -12 -70 -14 -70 -1 0 -3 -11 -6
-25 -2 -14 -11 -52 -19 -85 -8 -33 -17 -72 -20 -87 -3 -16 -8 -40 -11 -55 -4
-16 -8 -37 -9 -48 -2 -11 -4 -20 -5 -20 -1 0 -3 -7 -5 -15 -2 -8 -15 -69 -30
-135 -14 -66 -28 -129 -31 -140 -2 -11 -16 -69 -29 -130 -14 -60 -28 -123 -31
-140 -3 -16 -9 -43 -14 -60 -5 -16 -11 -46 -14 -66 -3 -20 -8 -42 -10 -50 -3
-8 -8 -25 -10 -39 -3 -14 -25 -113 -48 -220 -24 -107 -43 -206 -42 -220 5 -96
50 -167 134 -211 40 -21 61 -24 188 -27 142 -3 144 -4 137 -25 -3 -12 -7 -26
-9 -32 -9 -36 -38 -133 -43 -145 -3 -8 -7 -19 -8 -25 0 -5 -4 -17 -8 -25 -3
-8 -20 -62 -38 -120 -17 -58 -40 -134 -51 -170 -10 -36 -28 -92 -38 -125 -10
-33 -32 -105 -49 -160 -18 -55 -34 -111 -37 -124 -3 -13 -9 -32 -14 -41 -5
-10 -12 -32 -15 -50 -3 -18 -10 -41 -16 -51 -5 -11 -7 -19 -4 -19 4 0 3 -6 -2
-12 -4 -7 -8 -15 -9 -18 0 -3 -3 -12 -6 -20 -10 -28 -49 -157 -52 -171 -2 -8
-6 -21 -9 -29 -7 -20 -28 -88 -31 -103 -2 -7 -6 -19 -9 -27 -3 -8 -11 -33 -17
-55 -6 -22 -14 -47 -17 -55 -7 -17 -7 -17 -26 -85 -8 -27 -31 -103 -51 -167
-74 -242 -108 -353 -111 -368 -2 -8 -10 -34 -19 -58 -8 -23 -15 -43 -15 -45 0
-1 -2 -9 -5 -17 -17 -53 -29 -95 -27 -98 0 -1 -5 -18 -13 -37 -9 -20 -15 -39
-15 -43 0 -6 -36 -124 -49 -162 -3 -8 -6 -20 -7 -25 -7 -32 -40 -131 -45 -138
-4 -4 -6 13 -6 39 1 25 -2 48 -7 51 -4 2 -3 12 3 22 5 10 7 21 4 24 -4 3 -8
55 -10 114 -1 59 -5 173 -9 253 -3 80 -8 206 -11 280 -8 217 -14 378 -18 480
-3 52 -7 169 -10 260 -4 91 -9 215 -11 275 -3 61 -8 175 -10 255 -17 485 -17
490 -46 547 -24 45 -104 118 -132 121 -21 1 -92 11 -97 13 -3 1 -9 1 -14 0
-23 -5 -217 -4 -221 1 -3 3 -24 2 -48 -1 -56 -8 -97 -3 -92 12 2 7 7 32 10 57
3 25 7 54 9 65 2 11 7 40 10 65 4 25 14 88 22 140 9 52 17 108 19 123 2 16 6
40 9 55 3 15 8 47 11 72 3 25 10 70 15 100 5 30 12 73 15 95 3 23 7 52 10 65
3 13 7 42 10 65 8 53 14 95 20 125 2 14 7 45 10 70 3 25 7 54 9 65 3 18 7 38
22 140 3 17 7 41 9 55 2 14 7 43 10 65 2 22 7 51 9 65 3 14 12 74 21 134 9 59
19 118 21 130 4 20 7 41 19 124 7 51 17 116 20 132 2 8 4 20 4 26 1 7 16 12
34 12 17 0 99 3 181 7 81 3 191 8 245 10 53 2 166 6 251 10 85 4 204 8 263 10
59 1 110 4 112 6 7 7 115 3 116 -4z"/>
<path d="M1435 7225 c-104 -24 -117 -35 -548 -469 -721 -726 -740 -746 -769
-806 -28 -57 -42 -124 -39 -175 3 -38 9 -79 11 -82 2 -2 3 -6 4 -10 9 -40 48
-102 245 -396 124 -186 231 -345 236 -355 6 -9 12 -19 15 -22 6 -6 402 -594
415 -618 16 -27 109 -166 115 -172 8 -7 124 -183 129 -195 2 -5 12 -18 23 -29
10 -11 18 -25 18 -32 0 -7 4 -14 8 -16 4 -1 68 -93 141 -203 146 -219 179
-259 231 -281 76 -33 187 -23 239 20 13 12 98 95 188 185 l163 164 161 -164
c89 -90 294 -300 458 -465 163 -166 476 -485 696 -709 901 -916 904 -919 974
-949 139 -61 306 -24 412 91 26 28 69 104 76 133 28 116 13 241 -42 344 -14
26 -24 47 -24 49 1 2 -58 129 -137 292 -26 55 -48 102 -49 105 -1 3 -23 50
-49 105 -103 214 -150 312 -176 370 -15 33 -49 105 -76 160 -26 55 -47 103
-46 108 1 4 -3 7 -8 7 -5 0 -9 3 -8 8 1 4 -17 45 -39 92 -22 47 -66 139 -97
205 -32 66 -66 138 -77 161 -10 22 -19 46 -19 52 0 7 -4 12 -10 12 -5 0 -10 4
-10 9 0 5 -23 58 -52 117 -29 60 -53 111 -53 114 -1 3 -21 46 -44 95 -24 50
-68 142 -98 205 -30 63 -65 136 -79 161 -13 25 -21 49 -17 53 3 3 1 6 -5 6 -7
0 -12 4 -12 9 0 6 -25 63 -56 128 -31 65 -76 159 -99 208 -23 50 -64 135 -90
190 -26 55 -72 151 -101 214 -30 62 -54 117 -54 122 0 5 -5 9 -10 9 -6 0 -9 3
-8 8 1 4 -9 30 -22 57 -12 28 -22 53 -22 58 1 4 -2 7 -8 7 -5 0 -10 5 -10 12
0 11 -53 127 -102 223 -58 113 -172 161 -297 126 -36 -10 -68 -36 -166 -132
l-121 -119 -22 43 c-12 23 -30 56 -39 72 -10 17 -30 50 -44 75 -36 60 -66 114
-102 180 -16 30 -36 62 -43 71 -8 8 -14 21 -14 27 0 6 -6 17 -12 24 -7 8 -21
29 -31 48 -37 68 -52 95 -58 100 -3 3 -12 19 -21 35 -33 65 -53 100 -60 103
-5 2 -8 8 -8 12 0 5 -32 64 -72 132 -39 68 -85 148 -101 178 -17 30 -34 57
-39 58 -4 2 -8 9 -8 16 0 8 -9 25 -21 40 -11 14 -17 26 -13 26 4 0 1 8 -7 18
-8 9 -25 37 -39 62 -13 25 -26 47 -29 50 -3 3 -15 23 -26 45 -22 44 -95 122
-138 149 -68 42 -181 60 -262 41z m96 -625 c13 -25 26 -47 29 -50 6 -6 17 -26
60 -105 17 -31 41 -73 55 -95 14 -22 22 -40 18 -40 -5 0 -3 -4 3 -8 10 -7 59
-86 82 -132 7 -14 22 -41 34 -60 47 -77 80 -136 91 -162 6 -16 15 -28 19 -28
4 0 8 -4 8 -9 0 -5 50 -96 111 -202 62 -107 121 -212 133 -234 12 -22 24 -41
29 -43 4 -2 7 -8 7 -12 0 -5 17 -37 37 -72 54 -91 81 -139 94 -170 6 -16 14
-28 18 -28 4 0 15 -15 24 -34 44 -93 132 -144 238 -138 67 4 112 32 213 133
54 55 100 99 102 99 7 0 154 -313 154 -327 0 -7 5 -13 10 -13 6 0 10 -5 10
-10 0 -6 20 -52 44 -103 100 -210 166 -349 166 -353 0 -2 24 -52 53 -111 30
-60 54 -110 54 -113 1 -5 97 -208 141 -300 15 -30 27 -57 28 -60 0 -3 29 -63
63 -135 35 -71 70 -148 79 -170 8 -22 18 -42 22 -45 3 -3 18 -32 32 -65 15
-33 54 -116 86 -185 33 -69 79 -165 102 -215 23 -49 58 -124 78 -165 20 -41
36 -77 37 -80 0 -3 20 -45 44 -95 24 -49 59 -124 78 -165 19 -41 42 -88 50
-105 8 -16 -94 80 -227 215 -263 266 -841 855 -1173 1193 -397 405 -480 487
-492 487 -7 0 -25 6 -39 14 -35 18 -141 13 -181 -8 -16 -8 -100 -86 -186 -172
l-156 -156 -24 34 c-13 18 -27 35 -31 36 -4 2 -8 8 -8 14 0 6 -11 26 -25 44
-14 18 -25 37 -25 43 0 6 -5 11 -10 11 -6 0 -15 10 -20 23 -5 12 -18 33 -28
47 -11 14 -37 52 -58 85 -21 33 -42 64 -47 70 -31 40 -87 127 -87 135 0 4 -3
10 -8 12 -4 2 -25 30 -47 63 -21 33 -42 62 -47 63 -4 2 -8 8 -8 12 0 5 -19 37
-43 72 -81 117 -312 460 -322 477 -5 9 -52 79 -104 155 -51 76 -104 155 -117
175 -13 20 -27 41 -31 46 -11 14 -108 157 -116 171 -8 14 883 908 893 897 4
-5 18 -28 31 -53z"/>
<path d="M10198 5735 c-2 -2 -20 -6 -41 -9 -21 -3 -53 -12 -71 -20 -28 -12
-299 -188 -316 -206 -3 -3 -32 -23 -65 -45 -33 -22 -62 -42 -65 -45 -3 -3 -33
-23 -67 -45 -35 -22 -63 -43 -63 -47 0 -5 -5 -8 -10 -8 -9 0 -65 -35 -80 -50
-3 -3 -12 -9 -21 -15 -27 -16 -163 -109 -169 -115 -3 -3 -54 -39 -115 -80 -60
-41 -130 -88 -155 -105 -25 -16 -46 -33 -48 -37 -2 -5 -10 -8 -18 -8 -8 0 -14
-3 -14 -8 0 -4 -9 -12 -19 -17 -18 -9 -185 -121 -206 -138 -5 -4 -68 -48 -140
-97 -71 -49 -135 -93 -142 -99 -7 -6 -16 -11 -21 -11 -5 0 -17 -9 -27 -20 -10
-11 -22 -20 -27 -20 -22 0 -102 -81 -123 -126 -36 -77 -22 -188 33 -251 48
-57 168 -186 205 -220 20 -20 37 -40 37 -44 0 -5 -180 -190 -399 -411 -1465
-1477 -1326 -1334 -1358 -1399 -33 -67 -36 -78 -39 -154 -2 -72 25 -182 49
-197 7 -4 8 -8 2 -8 -5 0 20 -29 57 -64 88 -83 163 -112 271 -102 99 9 97 8
97 18 0 4 7 8 16 8 9 0 40 13 70 30 30 16 55 30 57 30 14 1 67 26 67 32 0 4 5
8 11 8 10 0 40 14 352 164 87 42 163 76 168 76 5 0 9 4 9 10 0 5 3 9 8 8 8 -1
55 20 306 141 92 44 171 81 175 81 4 0 13 6 19 12 7 7 16 13 20 13 4 1 43 18
87 40 44 21 82 39 85 39 3 1 33 16 66 33 34 17 65 29 68 26 3 -4 6 -1 6 5 0 7
4 12 9 12 5 0 70 30 145 66 74 36 137 64 138 62 2 -1 17 7 35 20 17 12 34 22
37 22 5 0 156 72 391 186 77 37 142 68 145 69 3 1 52 24 110 52 244 118 443
213 447 213 2 0 24 14 49 31 47 32 92 93 102 138 9 43 4 128 -9 153 -7 13 -12
26 -12 29 1 4 -33 44 -77 89 -44 46 -77 86 -75 90 4 7 107 69 190 116 11 6 85
50 164 97 79 48 146 87 147 87 2 0 28 16 58 35 30 19 57 35 58 35 6 0 472 278
485 289 7 6 16 11 21 11 14 0 98 93 117 131 29 55 43 122 39 190 -4 77 -5 82
-30 139 -23 50 -67 100 -279 316 -77 78 -262 268 -412 421 -284 291 -331 329
-421 340 -21 2 -49 6 -64 7 -15 2 -28 3 -30 1z m417 -959 c132 -136 241 -251
243 -256 3 -7 -127 -89 -216 -137 -13 -7 -61 -35 -107 -63 -45 -27 -87 -50
-93 -50 -6 0 -12 -4 -14 -8 -1 -5 -48 -34 -103 -66 -55 -32 -138 -80 -185
-108 -47 -27 -98 -58 -115 -68 -16 -9 -97 -57 -180 -105 -82 -49 -159 -93
-170 -99 -117 -62 -173 -154 -162 -261 7 -72 28 -109 105 -187 36 -37 64 -69
61 -71 -2 -2 -44 -23 -94 -47 -49 -24 -130 -63 -179 -86 -48 -24 -94 -44 -102
-44 -8 0 -14 -4 -14 -9 0 -5 -10 -13 -21 -16 -12 -4 -103 -47 -203 -95 -99
-48 -228 -110 -286 -137 -138 -67 -394 -190 -550 -266 -69 -34 -127 -62 -130
-63 -3 -1 -15 -5 -27 -9 -13 -4 -23 -11 -23 -16 0 -5 -6 -9 -12 -9 -7 0 -49
-18 -93 -40 -44 -22 -86 -40 -92 -40 -7 0 -13 -4 -13 -10 0 -5 -5 -10 -11 -10
-5 0 -57 -22 -114 -50 -57 -27 -107 -50 -110 -50 -4 0 130 138 298 308 1013
1020 1093 1101 1114 1138 11 21 29 111 25 127 -2 5 -4 21 -6 35 -5 50 -37 93
-149 209 -62 63 -111 117 -110 120 1 5 161 116 418 290 72 48 132 90 135 93 3
3 32 23 65 45 33 22 66 46 73 52 7 7 19 13 27 13 7 0 15 4 17 8 2 4 39 32 83
62 44 30 82 58 83 63 2 4 8 7 14 7 11 0 81 51 86 63 2 4 8 7 13 7 5 0 53 30
107 68 175 121 212 147 230 157 9 6 28 18 41 27 l24 18 91 -94 c50 -52 199
-205 331 -340z"/>
</g>
</svg>
